<svg width="9" height="9" viewBox="0 0 9 9" fill="none" xmlns="http://www.w3.org/2000/svg">
<path d="M2.7 2.7V0.9C2.7 0.405 3.105 0 3.6 0H8.1C8.33869 0 8.56761 0.0948212 8.7364 0.263604C8.90518 0.432387 9 0.661305 9 0.9V5.4C9 5.63869 8.90518 5.86761 8.7364 6.0364C8.56761 6.20518 8.33869 6.3 8.1 6.3H6.3V8.1C6.3 8.33869 6.20518 8.56761 6.0364 8.7364C5.86761 8.90518 5.63869 9 5.4 9H0.9C0.661305 9 0.432387 8.90518 0.263604 8.7364C0.0948212 8.56761 0 8.33869 0 8.1V3.6C0 3.105 0.405 2.7 0.9 2.7H2.7ZM3.6 2.7H5.4C5.63869 2.7 5.86761 2.79482 6.0364 2.9636C6.20518 3.13239 6.3 3.3613 6.3 3.6V5.4H8.1V0.9H3.6V2.7ZM0.9 3.6V8.1H5.4V3.6H0.9Z" fill="black"/>
</svg>
