<svg width="25" height="25" viewBox="0 0 25 25" fill="none" xmlns="http://www.w3.org/2000/svg">
<path fill-rule="evenodd" clip-rule="evenodd" d="M4.46427 17.8571C4.22747 17.8571 4.00038 17.9512 3.83294 18.1186C3.66549 18.2861 3.57141 18.5132 3.57141 18.75C3.57141 18.9868 3.66549 19.2139 3.83294 19.3813C4.00038 19.5487 4.22747 19.6428 4.46427 19.6428H8.0357C8.2725 19.6428 8.49959 19.5487 8.66703 19.3813C8.83447 19.2139 8.92855 18.9868 8.92855 18.75C8.92855 18.5132 8.83447 18.2861 8.66703 18.1186C8.49959 17.9512 8.2725 17.8571 8.0357 17.8571H4.46427Z" fill="#808080"/>
<path fill-rule="evenodd" clip-rule="evenodd" d="M18.7499 15.1786C18.7348 15.18 18.7196 15.1818 18.7046 15.184C18.6689 15.1859 18.6334 15.19 18.5982 15.1962C18.5664 15.202 18.535 15.2096 18.504 15.2189C18.4727 15.2276 18.4418 15.2381 18.4116 15.2503C18.3794 15.2635 18.3479 15.2787 18.3174 15.2956C18.2898 15.3111 18.2631 15.3279 18.2373 15.3462C18.2106 15.3651 18.185 15.3855 18.1606 15.4073C18.1463 15.4179 18.1323 15.4289 18.1187 15.4404L16.333 17.2261C16.1656 17.3935 16.0715 17.6206 16.0715 17.8574C16.0715 18.0941 16.1656 18.3212 16.333 18.4886C16.5004 18.656 16.7275 18.7501 16.9643 18.7501C17.201 18.7501 17.4281 18.656 17.5955 18.4886L17.8571 18.2269V21.4286C17.8571 21.6654 17.9512 21.8925 18.1186 22.0599C18.2861 22.2274 18.5131 22.3214 18.7499 22.3214C18.9867 22.3214 19.2138 22.2274 19.3813 22.0599C19.5487 21.8925 19.6428 21.6654 19.6428 21.4286V18.2269L19.9044 18.4884C20.0718 18.6558 20.2989 18.7499 20.5357 18.7499C20.7724 18.7499 20.9995 18.6558 21.1669 18.4884C21.3343 18.321 21.4284 18.0939 21.4284 17.8572C21.4284 17.6204 21.3343 17.3933 21.1669 17.2259L19.4074 15.4663C19.3078 15.3587 19.1832 15.2772 19.0447 15.2292C19.0441 15.2292 19.0435 15.2292 19.0429 15.2292C19.0417 15.2286 19.0405 15.228 19.0393 15.2274C18.9815 15.208 18.9219 15.1945 18.8614 15.1873C18.8533 15.186 18.8452 15.1848 18.8371 15.1837C18.8081 15.1805 18.7791 15.179 18.7499 15.1786Z" fill="#808080"/>
<path fill-rule="evenodd" clip-rule="evenodd" d="M4.46427 10.7143C4.22747 10.7143 4.00038 10.8083 3.83294 10.9758C3.66549 11.1432 3.57141 11.3704 3.57141 11.6072C3.57141 11.844 3.66549 12.071 3.83294 12.2385C4.00038 12.4059 4.22747 12.5 4.46427 12.5H8.0357C8.2725 12.5 8.49959 12.4059 8.66703 12.2385C8.83447 12.071 8.92855 11.844 8.92855 11.6072C8.92855 11.3704 8.83447 11.1432 8.66703 10.9758C8.49959 10.8083 8.2725 10.7143 8.0357 10.7143H4.46427Z" fill="#808080"/>
<path fill-rule="evenodd" clip-rule="evenodd" d="M4.46427 3.57141C4.22747 3.57141 4.00038 3.66547 3.83294 3.83291C3.66549 4.00035 3.57141 4.22747 3.57141 4.46427C3.57141 4.70107 3.66549 4.92816 3.83294 5.0956C4.00038 5.26304 4.22747 5.35713 4.46427 5.35713H8.0357C8.2725 5.35713 8.49959 5.26304 8.66703 5.0956C8.83447 4.92816 8.92855 4.70107 8.92855 4.46427C8.92855 4.22747 8.83447 4.00035 8.66703 3.83291C8.49959 3.66547 8.2725 3.57141 8.0357 3.57141H4.46427Z" fill="#808080"/>
<path fill-rule="evenodd" clip-rule="evenodd" d="M2.67857 0C1.21009 0 0 1.21009 0 2.67857V6.25C0 6.93418 0.264959 7.55996 0.694057 8.03571C0.264959 8.51146 0 9.13725 0 9.82143V13.3929C0 14.077 0.264959 14.7028 0.694057 15.1786C0.264959 15.6543 0 16.2801 0 16.9643V20.5357C0 22.0042 1.21009 23.2143 2.67857 23.2143H14.3851C15.5132 24.3177 17.0545 25 18.75 25C22.1912 25 25 22.1912 25 18.75C25 16.2664 23.5365 14.1117 21.4286 13.1051V9.82143C21.4286 9.13725 21.1636 8.51146 20.7345 8.03571C21.1636 7.55996 21.4286 6.93418 21.4286 6.25V2.67857C21.4286 1.21009 20.2185 0 18.75 0H2.67857ZM2.67857 1.78571H18.75C19.2601 1.78571 19.6429 2.16849 19.6429 2.67857V6.25C19.6429 6.76009 19.2601 7.14286 18.75 7.14286H2.67857C2.16848 7.14286 1.78571 6.76009 1.78571 6.25V2.67857C1.78571 2.16849 2.16848 1.78571 2.67857 1.78571ZM2.67857 8.92857H18.75C19.2601 8.92857 19.6429 9.31135 19.6429 9.82143V12.5645C19.3508 12.5224 19.0534 12.5 18.75 12.5C17.0545 12.5 15.5132 13.1823 14.3851 14.2857H2.67857C2.16848 14.2857 1.78571 13.9029 1.78571 13.3928V9.8214C1.78571 9.31132 2.16848 8.92857 2.67857 8.92857ZM18.75 14.2857C21.2261 14.2857 23.2143 16.2739 23.2143 18.75C23.2143 21.2261 21.2261 23.2143 18.75 23.2143C17.4636 23.2143 16.3103 22.6768 15.4977 21.814C15.4548 21.7527 15.4045 21.697 15.3477 21.6483C14.6851 20.8699 14.2857 19.8588 14.2857 18.75C14.2857 17.6283 14.6955 16.6075 15.3721 15.8255C15.3925 15.8038 15.4117 15.7811 15.4297 15.7575C16.2453 14.8522 17.4278 14.2857 18.75 14.2857ZM2.67857 16.0714H13.1051C12.717 16.8842 12.5 17.7924 12.5 18.75C12.5 19.7076 12.717 20.6158 13.1051 21.4286H2.67857C2.16848 21.4286 1.78571 21.0458 1.78571 20.5357V16.9643C1.78571 16.4542 2.16848 16.0714 2.67857 16.0714Z" fill="#808080"/>
</svg>
