<svg width="22" height="22" viewBox="0 0 22 22" fill="none" xmlns="http://www.w3.org/2000/svg">
<path d="M2.74997 3.43757V0.687506C2.74997 0.307457 3.05743 0 3.43757 0C3.81752 0 4.12498 0.307457 4.12498 0.687506V3.43757C4.12498 3.81753 3.81752 4.12499 3.43757 4.12499C3.05743 4.12503 2.74997 3.81753 2.74997 3.43757ZM14.4376 4.12503C14.8175 4.12503 15.1251 3.81758 15.1251 3.43762V0.687506C15.1251 0.307457 14.8175 0 14.4376 0C14.0575 0 13.7499 0.307457 13.7499 0.687506V3.43757C13.7499 3.81753 14.0575 4.12503 14.4376 4.12503ZM21.9999 16.4999C21.9999 19.5375 19.5374 22 16.4999 22C13.4627 22 11 19.5375 11 16.4999C11 13.4627 13.4627 11 16.4999 11C19.5374 11 21.9999 13.4626 21.9999 16.4999ZM20.6251 16.4999C20.6251 14.2255 18.7747 12.3749 16.5 12.3749C14.2254 12.3749 12.375 14.2255 12.375 16.4999C12.375 18.7747 14.2254 20.625 16.5 20.625C18.7747 20.625 20.6251 18.7747 20.6251 16.4999ZM5.50003 8.25002H2.74997V11H5.50003V8.25002ZM2.74997 15.125H5.50003V12.3749H2.74997V15.125ZM6.87495 11H9.62506V8.25002H6.87495V11ZM6.87495 15.125H9.62506V12.3749H6.87495V15.125ZM1.37505 16.3632V6.87497H16.5V9.62503H17.875V4.26205C17.875 3.42683 17.2089 2.74998 16.3859 2.74998H15.8125V3.43762C15.8125 4.19486 15.196 4.81258 14.4376 4.81258C13.679 4.81258 13.0626 4.19486 13.0626 3.43762V2.74998H4.81244V3.43762C4.81244 4.19486 4.19612 4.81258 3.43761 4.81258C2.67892 4.81258 2.06256 4.19486 2.06256 3.43762V2.74998H1.48981C0.666784 2.74998 0 3.42683 0 4.26205V16.3632C0 17.1957 0.666784 17.8751 1.48981 17.8751H9.62506V16.4999H1.48981C1.42751 16.4999 1.37505 16.4355 1.37505 16.3632ZM13.7499 11V8.25002H11V11H13.7499ZM18.5625 16.4999H16.4999V14.4373C16.4999 14.0575 16.1925 13.75 15.8124 13.75C15.4324 13.75 15.1251 14.0575 15.1251 14.4373V17.1876C15.1251 17.5675 15.4324 17.8751 15.8124 17.8751H18.5625C18.9425 17.8751 19.25 17.5675 19.25 17.1876C19.25 16.8075 18.9425 16.4999 18.5625 16.4999Z" fill="black"/>
</svg>
