<svg width="11" height="11" viewBox="0 0 11 11" fill="none" xmlns="http://www.w3.org/2000/svg">
<path d="M9.16667 5.04167C9.04511 5.04167 8.92853 5.08996 8.84258 5.17591C8.75662 5.26186 8.70833 5.37844 8.70833 5.5V8.25C8.70833 8.37156 8.66005 8.48814 8.57409 8.57409C8.48814 8.66005 8.37156 8.70833 8.25 8.70833H2.75C2.62844 8.70833 2.51186 8.66005 2.42591 8.57409C2.33996 8.48814 2.29167 8.37156 2.29167 8.25V2.75C2.29167 2.62844 2.33996 2.51186 2.42591 2.42591C2.51186 2.33996 2.62844 2.29167 2.75 2.29167H5.5C5.62156 2.29167 5.73814 2.24338 5.82409 2.15742C5.91004 2.07147 5.95833 1.95489 5.95833 1.83333C5.95833 1.71178 5.91004 1.5952 5.82409 1.50924C5.73814 1.42329 5.62156 1.375 5.5 1.375H2.75C2.38533 1.375 2.03559 1.51987 1.77773 1.77773C1.51987 2.03559 1.375 2.38533 1.375 2.75V8.25C1.375 8.61467 1.51987 8.96441 1.77773 9.22227C2.03559 9.48013 2.38533 9.625 2.75 9.625H8.25C8.61467 9.625 8.96441 9.48013 9.22227 9.22227C9.48013 8.96441 9.625 8.61467 9.625 8.25V5.5C9.625 5.37844 9.57671 5.26186 9.49076 5.17591C9.4048 5.08996 9.28822 5.04167 9.16667 5.04167Z" fill="#231F20"/>
<path d="M7.33339 2.29167H8.05755L5.17464 5.17C5.13168 5.21261 5.09758 5.2633 5.07431 5.31915C5.05104 5.375 5.03906 5.43491 5.03906 5.49542C5.03906 5.55592 5.05104 5.61583 5.07431 5.67168C5.09758 5.72753 5.13168 5.77823 5.17464 5.82083C5.21724 5.86379 5.26794 5.89789 5.32379 5.92116C5.37964 5.94443 5.43955 5.95641 5.50005 5.95641C5.56056 5.95641 5.62047 5.94443 5.67632 5.92116C5.73217 5.89789 5.78286 5.86379 5.82547 5.82083L8.70839 2.9425V3.66667C8.70839 3.78822 8.75668 3.9048 8.84263 3.99076C8.92858 4.07671 9.04516 4.125 9.16672 4.125C9.28828 4.125 9.40486 4.07671 9.49081 3.99076C9.57677 3.9048 9.62505 3.78822 9.62505 3.66667V1.83333C9.62505 1.71178 9.57677 1.5952 9.49081 1.50924C9.40486 1.42329 9.28828 1.375 9.16672 1.375H7.33339C7.21183 1.375 7.09525 1.42329 7.0093 1.50924C6.92334 1.5952 6.87505 1.71178 6.87505 1.83333C6.87505 1.95489 6.92334 2.07147 7.0093 2.15742C7.09525 2.24338 7.21183 2.29167 7.33339 2.29167Z" fill="#231F20"/>
</svg>
