<svg width="25" height="25" viewBox="0 0 25 25" fill="none" xmlns="http://www.w3.org/2000/svg">
<path fill-rule="evenodd" clip-rule="evenodd" d="M18.75 15.8447C18.5132 15.8447 18.2861 15.9325 18.1186 16.0888C17.9512 16.2451 17.8571 16.457 17.8571 16.6781V19.6663L17.5955 19.4222C17.4281 19.2659 17.201 19.1781 16.9643 19.1781C16.7275 19.1781 16.5004 19.2659 16.333 19.4222C16.1656 19.5785 16.0715 19.7904 16.0715 20.0114C16.0715 20.2324 16.1656 20.4443 16.333 20.6006L18.1187 22.2673C18.1323 22.2779 18.1463 22.2883 18.1606 22.2982C18.185 22.3185 18.2106 22.3375 18.2373 22.3552C18.2631 22.3722 18.2898 22.388 18.3174 22.4023C18.3479 22.4182 18.3794 22.4323 18.4116 22.4447C18.4418 22.456 18.4727 22.4658 18.504 22.474C18.535 22.4826 18.5664 22.4897 18.5982 22.4952C18.6334 22.501 18.6689 22.5048 18.7046 22.5066C18.7196 22.5086 18.7348 22.5103 18.7499 22.5116C18.7651 22.5103 18.7802 22.5086 18.7953 22.5066C18.831 22.5048 18.8665 22.501 18.9017 22.4952C18.9335 22.4897 18.9649 22.4826 18.9959 22.474C19.0272 22.4658 19.0581 22.456 19.0883 22.4447C19.1205 22.4323 19.152 22.4182 19.1824 22.4023C19.21 22.388 19.2368 22.3722 19.2626 22.3552C19.2893 22.3375 19.3149 22.3185 19.3393 22.2982C19.3536 22.2883 19.3676 22.2779 19.3812 22.2673L21.1669 20.6006C21.3343 20.4443 21.4283 20.2324 21.4283 20.0114C21.4283 19.7904 21.3343 19.5785 21.1669 19.4222C20.9995 19.266 20.7724 19.1782 20.5356 19.1782C20.2989 19.1782 20.0718 19.266 19.9044 19.4222L19.6428 19.6663V16.6781C19.6428 16.457 19.5487 16.2451 19.3813 16.0888C19.2139 15.9325 18.9868 15.8447 18.75 15.8447Z" fill="#808080"/>
<path fill-rule="evenodd" clip-rule="evenodd" d="M8.92857 0C6.573 0 4.42951 0.494589 2.80587 1.35254C1.18224 2.21049 0 3.50931 0 5.07975V19.917C0 21.4878 1.18224 22.7887 2.80587 23.6475C4.42951 24.5062 6.57284 25 8.92857 25C11.2018 25 13.2722 24.5394 14.8717 23.7337C15.9389 24.5254 17.2868 25 18.75 25C22.1912 25 25 22.3785 25 19.1667C25 15.9549 22.1912 13.3333 18.75 13.3333C18.4466 13.3333 18.1492 13.3542 17.8571 13.3936V5.07978C17.8571 3.50934 16.6749 2.21051 15.0513 1.35256C13.4276 0.49459 11.2841 0 8.92857 0ZM8.92857 1.66667C11.011 1.66667 12.8859 2.12388 14.1706 2.80273C15.4553 3.4816 16.0714 4.30461 16.0714 5.07975C16.0714 5.85556 15.4553 6.68074 14.1706 7.36003C12.8859 8.03932 11.0109 8.49609 8.92857 8.49609C6.84626 8.49609 4.97122 8.03932 3.68652 7.36003C2.40181 6.68074 1.78571 5.85556 1.78571 5.07975C1.78571 4.30461 2.4018 3.4816 3.68652 2.80273C4.97123 2.12388 6.84615 1.66667 8.92857 1.66667ZM1.78571 8.16243C2.09841 8.39901 2.43981 8.61666 2.80587 8.81022C4.42952 9.66871 6.57289 10.1628 8.92857 10.1628C11.2843 10.1628 13.4276 9.66871 15.0513 8.81022C15.4173 8.61666 15.7587 8.39901 16.0714 8.16243V10.026C16.0714 10.8018 15.4553 11.6254 14.1706 12.3047C12.8859 12.984 11.0109 13.4424 8.92857 13.4424C6.84626 13.4424 4.97122 12.984 3.68652 12.3047C2.40181 11.6254 1.78571 10.8018 1.78571 10.026V8.16243ZM1.78571 13.1071C2.09841 13.3435 2.43981 13.5613 2.80587 13.7549C4.42952 14.6134 6.57289 15.109 8.92857 15.109C11.2843 15.109 13.4276 14.6134 15.0513 13.7549C15.4173 13.5613 15.7587 13.3435 16.0714 13.1071V13.8981C14.3714 14.6558 13.0923 16.1108 12.6604 17.8613C11.5789 18.1908 10.2988 18.3871 8.92857 18.387C6.8462 18.387 4.97121 17.9301 3.68652 17.251C2.40182 16.5719 1.78571 15.7481 1.78571 14.9723V13.1071ZM18.75 15C21.2261 15 23.2143 16.8556 23.2143 19.1667C23.2143 21.4777 21.2261 23.3333 18.75 23.3333C16.2739 23.3333 14.2857 21.4777 14.2857 19.1667C14.2857 18.9884 14.2976 18.8132 14.3206 18.6409C14.3285 18.6044 14.3338 18.5675 14.3363 18.5303C14.5785 17.0396 15.6613 15.8155 17.1213 15.2848C17.2116 15.2686 17.2986 15.2396 17.3794 15.1986C17.8106 15.0701 18.2715 15 18.75 15ZM1.78571 18.0534C2.09841 18.2898 2.43981 18.5077 2.80587 18.7012C4.42952 19.5594 6.57296 20.0537 8.92857 20.0537C10.2065 20.0537 11.4191 19.9056 12.5227 19.6354C12.6123 20.676 12.9957 21.6412 13.5969 22.4577C12.3558 22.9866 10.7241 23.3333 8.92857 23.3333C6.84631 23.3333 4.97123 22.8767 3.68652 22.1973C2.4018 21.5178 1.78571 20.6928 1.78571 19.917V18.0534Z" fill="#808080"/>
</svg>
