<svg width="30" height="30" viewBox="0 0 30 30" fill="none" xmlns="http://www.w3.org/2000/svg">
<path d="M18.478 24.1737C18.478 25.411 17.8183 26.358 16.747 26.977C15.676 27.5957 14.3563 27.5957 13.2873 26.977C12.2157 26.358 11.5563 25.411 11.5563 24.1737" fill="#808080"/>
<path d="M15.0164 2.56934C15.9604 2.56934 16.7207 3.15134 16.7207 4.04634C16.7207 4.60967 16.7404 5.03 17.0944 5.13767C20.1047 6.04667 22.035 8.17734 22.035 10.9443V15.595C22.035 17.7257 22.9067 18.157 24.0037 18.972C25.5924 20.1503 25.2297 22.604 23.4067 22.6023H6.6267C4.8037 22.604 4.44103 20.1503 6.0297 18.972C7.12536 18.157 7.99836 17.7257 7.99836 15.595V10.9443C7.99836 8.17734 9.9287 6.04667 12.939 5.13767C13.292 5.03 13.3127 4.60967 13.3127 4.04634C13.313 3.15134 14.0737 2.56934 15.0164 2.56934Z" fill="#808080"/>
</svg>
