<svg width="7" height="9" viewBox="0 0 7 9" fill="none" xmlns="http://www.w3.org/2000/svg">
<g clip-path="url(#clip0_1110_157)">
<path d="M4.36333 5.625C5.915 5.625 7 4.57984 7 3.07742C7 1.575 5.915 0.5625 4.36333 0.5625H1.38542C1.26461 0.5625 1.16667 0.656947 1.16667 0.773438V4.40564H0.21875C0.0979453 4.40564 0 4.50009 0 4.61658V5.41406C0 5.53055 0.0979453 5.625 0.21875 5.625H1.16667V6.1875H0.21875C0.0979453 6.1875 0 6.28195 0 6.39844V7.10156C0 7.21805 0.0979453 7.3125 0.21875 7.3125H1.16667V8.22656C1.16667 8.34305 1.26461 8.4375 1.38542 8.4375H2.45292C2.57372 8.4375 2.67167 8.34305 2.67167 8.22656V7.3125H5.61458C5.73539 7.3125 5.83333 7.21805 5.83333 7.10156V6.39844C5.83333 6.28195 5.73539 6.1875 5.61458 6.1875H2.67167V5.625H4.36333ZM2.67167 1.77096H4.10667C4.95833 1.77096 5.47167 2.28266 5.47167 3.07742C5.47167 3.88306 4.95833 4.40564 4.08333 4.40564H2.67167V1.77096Z" fill="black"/>
</g>
<defs>
<clipPath id="clip0_1110_157">
<rect width="7" height="9" fill="white"/>
</clipPath>
</defs>
</svg>
